<svg xmlns="http://www.w3.org/2000/svg" xmlns:xlink="http://www.w3.org/1999/xlink" contentStyleType="text/css" height="638px" preserveAspectRatio="none" style="width:1756px;height:638px;background:#FFFFFF;" version="1.1" viewBox="0 0 1756 638" width="1756px" zoomAndPan="magnify"><defs/><g><!--cluster a1ab4d5e3ff4899ee455fdc1b403da3d--><g id="cluster_a1ab4d5e3ff4899ee455fdc1b403da3d"><polygon fill="none" points="16,16,26,6,284,6,284,519.78,274,529.78,16,529.78,16,16" style="stroke:#181818;stroke-width:1.0;"/><line style="stroke:#181818;stroke-width:1.0;" x1="274" x2="284" y1="16" y2="6"/><line style="stroke:#181818;stroke-width:1.0;" x1="16" x2="274" y1="16" y2="16"/><line style="stroke:#181818;stroke-width:1.0;" x1="274" x2="274" y1="16" y2="529.78"/><text fill="#000000" font-family="sans-serif" font-size="14" font-weight="bold" lengthAdjust="spacing" textLength="112" x="90" y="31.9951">Postgresql_db</text></g><!--cluster b43fdd98b1fd705ae4c3a10cf25aad8a--><g id="cluster_b43fdd98b1fd705ae4c3a10cf25aad8a"><polygon fill="none" points="570,24.15,580,14.15,849,14.15,849,519.78,839,529.78,570,529.78,570,24.15" style="stroke:#181818;stroke-width:1.0;"/><line style="stroke:#181818;stroke-width:1.0;" x1="839" x2="849" y1="24.15" y2="14.15"/><line style="stroke:#181818;stroke-width:1.0;" x1="570" x2="839" y1="24.15" y2="24.15"/><line style="stroke:#181818;stroke-width:1.0;" x1="839" x2="839" y1="24.15" y2="529.78"/><text fill="#000000" font-family="sans-serif" font-size="14" font-weight="bold" lengthAdjust="spacing" textLength="67" x="672" y="40.1451">Backend</text></g><!--cluster 86a1b907d54bf7010394bf316e183e67--><g id="cluster_86a1b907d54bf7010394bf316e183e67"><polygon fill="none" points="1505,16,1515,6,1739,6,1739,163.49,1729,173.49,1505,173.49,1505,16" style="stroke:#181818;stroke-width:1.0;"/><line style="stroke:#181818;stroke-width:1.0;" x1="1729" x2="1739" y1="16" y2="6"/><line style="stroke:#181818;stroke-width:1.0;" x1="1505" x2="1729" y1="16" y2="16"/><line style="stroke:#181818;stroke-width:1.0;" x1="1729" x2="1729" y1="16" y2="173.49"/><text fill="#000000" font-family="sans-serif" font-size="14" font-weight="bold" lengthAdjust="spacing" textLength="43" x="1596.5" y="31.9951">Redis</text></g><!--cluster d48bac364ad5e16c8a0b13f87d5ae9d5--><g id="cluster_d48bac364ad5e16c8a0b13f87d5ae9d5"><polygon fill="none" points="308,24.15,318,14.15,480,14.15,480,519.78,470,529.78,308,529.78,308,24.15" style="stroke:#181818;stroke-width:1.0;"/><line style="stroke:#181818;stroke-width:1.0;" x1="470" x2="480" y1="24.15" y2="14.15"/><line style="stroke:#181818;stroke-width:1.0;" x1="308" x2="470" y1="24.15" y2="24.15"/><line style="stroke:#181818;stroke-width:1.0;" x1="470" x2="470" y1="24.15" y2="529.78"/><text fill="#000000" font-family="sans-serif" font-size="14" font-weight="bold" lengthAdjust="spacing" textLength="51" x="364.5" y="40.1451">Celery</text></g><!--cluster ee434023cf89d7dfb21f63d64f0f9d74--><g id="cluster_ee434023cf89d7dfb21f63d64f0f9d74"><polygon fill="none" points="935,16,945,6,1481,6,1481,519.78,1471,529.78,935,529.78,935,16" style="stroke:#181818;stroke-width:1.0;"/><line style="stroke:#181818;stroke-width:1.0;" x1="1471" x2="1481" y1="16" y2="6"/><line style="stroke:#181818;stroke-width:1.0;" x1="935" x2="1471" y1="16" y2="16"/><line style="stroke:#181818;stroke-width:1.0;" x1="1471" x2="1471" y1="16" y2="529.78"/><text fill="#000000" font-family="sans-serif" font-size="14" font-weight="bold" lengthAdjust="spacing" textLength="44" x="1182" y="31.9951">Nginx</text></g><!--entity 8effa97ce5e6dcdf84b649f2396404fa--><g id="elem_8effa97ce5e6dcdf84b649f2396404fa"><rect fill="#F1F1F1" height="111.4844" rx="2.5" ry="2.5" style="stroke:#181818;stroke-width:0.5;" width="235" x="32.5" y="46"/><rect fill="#F1F1F1" height="10" style="stroke:#181818;stroke-width:0.5;" width="15" x="247.5" y="51"/><rect fill="#F1F1F1" height="2" style="stroke:#181818;stroke-width:0.5;" width="4" x="245.5" y="53"/><rect fill="#F1F1F1" height="2" style="stroke:#181818;stroke-width:0.5;" width="4" x="245.5" y="57"/><text fill="#000000" font-family="sans-serif" font-size="14" font-weight="bold" lengthAdjust="spacing" textLength="111" x="47.5" y="78.9951">snik_database</text><text fill="#000000" font-family="sans-serif" font-size="14" lengthAdjust="spacing" textLength="4" x="47.5" y="95.292">&#160;</text><text fill="#000000" font-family="sans-serif" font-size="14" lengthAdjust="spacing" textLength="195" x="47.5" y="111.5889">image: postgres:13.0-alpine</text><text fill="#000000" font-family="sans-serif" font-size="14" lengthAdjust="spacing" textLength="99" x="47.5" y="127.8857">restart: always</text><text fill="#000000" font-family="sans-serif" font-size="14" lengthAdjust="spacing" textLength="4" x="47.5" y="144.1826">&#160;</text></g><!--entity e66da74790b7871a57f1ed9ccc805310--><g id="elem_e66da74790b7871a57f1ed9ccc805310"><rect fill="#F1F1F1" height="39.2969" rx="2.5" ry="2.5" style="stroke:#181818;stroke-width:0.5;" width="189" x="55.5" y="474.49"/><polygon fill="#F1F1F1" points="227.5,479.49,227.5,493.49,239.5,493.49,239.5,485.49,233.5,479.49,227.5,479.49" style="stroke:#181818;stroke-width:0.5;"/><line style="stroke:#181818;stroke-width:0.5;" x1="233.5" x2="233.5" y1="479.49" y2="485.49"/><line style="stroke:#181818;stroke-width:0.5;" x1="239.5" x2="233.5" y1="485.49" y2="485.49"/><text fill="#000000" font-family="sans-serif" font-size="14" lengthAdjust="spacing" textLength="159" x="65.5" y="500.4851">/var/lib/postgresql/data</text></g><!--entity 58f00ed1c3de44988afe14aa7b8a320f--><g id="elem_58f00ed1c3de44988afe14aa7b8a320f"><rect fill="#F1F1F1" height="95.1875" rx="2.5" ry="2.5" style="stroke:#181818;stroke-width:0.5;" width="146" x="603" y="54.15"/><rect fill="#F1F1F1" height="10" style="stroke:#181818;stroke-width:0.5;" width="15" x="729" y="59.15"/><rect fill="#F1F1F1" height="2" style="stroke:#181818;stroke-width:0.5;" width="4" x="727" y="61.15"/><rect fill="#F1F1F1" height="2" style="stroke:#181818;stroke-width:0.5;" width="4" x="727" y="65.15"/><text fill="#000000" font-family="sans-serif" font-size="14" font-weight="bold" lengthAdjust="spacing" textLength="106" x="618" y="87.1451">snik_backend</text><text fill="#000000" font-family="sans-serif" font-size="14" lengthAdjust="spacing" textLength="4" x="618" y="103.442">&#160;</text><text fill="#000000" font-family="sans-serif" font-size="14" lengthAdjust="spacing" textLength="99" x="618" y="119.7389">restart: always</text><text fill="#000000" font-family="sans-serif" font-size="14" lengthAdjust="spacing" textLength="4" x="618" y="136.0357">&#160;</text></g><!--entity 0ec3911f265d6f2f1518d5bc64617499--><g id="elem_0ec3911f265d6f2f1518d5bc64617499"><ellipse cx="613" cy="249.49" fill="#F1F1F1" rx="8" ry="8" style="stroke:#181818;stroke-width:0.5;"/><text fill="#000000" font-family="sans-serif" font-size="14" lengthAdjust="spacing" textLength="36" x="595" y="279.4851">8080</text></g><!--entity be8b2bf6e28fad2562a085b3039bb9f1--><g id="elem_be8b2bf6e28fad2562a085b3039bb9f1"><rect fill="#F1F1F1" height="39.2969" rx="2.5" ry="2.5" style="stroke:#181818;stroke-width:0.5;" width="103" x="586.5" y="474.49"/><polygon fill="#F1F1F1" points="672.5,479.49,672.5,493.49,684.5,493.49,684.5,485.49,678.5,479.49,672.5,479.49" style="stroke:#181818;stroke-width:0.5;"/><line style="stroke:#181818;stroke-width:0.5;" x1="678.5" x2="678.5" y1="479.49" y2="485.49"/><line style="stroke:#181818;stroke-width:0.5;" x1="684.5" x2="678.5" y1="485.49" y2="485.49"/><text fill="#000000" font-family="sans-serif" font-size="14" lengthAdjust="spacing" textLength="73" x="596.5" y="500.4851">/app/static</text></g><!--entity 5e0b9b67f6d26f68b6785193ccf94dd1--><g id="elem_5e0b9b67f6d26f68b6785193ccf94dd1"><rect fill="#F1F1F1" height="39.2969" rx="2.5" ry="2.5" style="stroke:#181818;stroke-width:0.5;" width="108" x="725" y="474.49"/><polygon fill="#F1F1F1" points="816,479.49,816,493.49,828,493.49,828,485.49,822,479.49,816,479.49" style="stroke:#181818;stroke-width:0.5;"/><line style="stroke:#181818;stroke-width:0.5;" x1="822" x2="822" y1="479.49" y2="485.49"/><line style="stroke:#181818;stroke-width:0.5;" x1="828" x2="822" y1="485.49" y2="485.49"/><text fill="#000000" font-family="sans-serif" font-size="14" lengthAdjust="spacing" textLength="78" x="735" y="500.4851">/app/media</text></g><!--entity dd7532fa8d5220fbf9ca10760d380a7f--><g id="elem_dd7532fa8d5220fbf9ca10760d380a7f"><rect fill="#F1F1F1" height="111.4844" rx="2.5" ry="2.5" style="stroke:#181818;stroke-width:0.5;" width="203" x="1520.5" y="46"/><rect fill="#F1F1F1" height="10" style="stroke:#181818;stroke-width:0.5;" width="15" x="1703.5" y="51"/><rect fill="#F1F1F1" height="2" style="stroke:#181818;stroke-width:0.5;" width="4" x="1701.5" y="53"/><rect fill="#F1F1F1" height="2" style="stroke:#181818;stroke-width:0.5;" width="4" x="1701.5" y="57"/><text fill="#000000" font-family="sans-serif" font-size="14" font-weight="bold" lengthAdjust="spacing" textLength="79" x="1535.5" y="78.9951">snik_redis</text><text fill="#000000" font-family="sans-serif" font-size="14" lengthAdjust="spacing" textLength="4" x="1535.5" y="95.292">&#160;</text><text fill="#000000" font-family="sans-serif" font-size="14" lengthAdjust="spacing" textLength="158" x="1535.5" y="111.5889">image: redis:7.2-alpine</text><text fill="#000000" font-family="sans-serif" font-size="14" lengthAdjust="spacing" textLength="163" x="1535.5" y="127.8857">restart: unless-stopped</text><text fill="#000000" font-family="sans-serif" font-size="14" lengthAdjust="spacing" textLength="4" x="1535.5" y="144.1826">&#160;</text></g><!--entity 03d1d8e7460ee68d1cd56e0d2579533b--><g id="elem_03d1d8e7460ee68d1cd56e0d2579533b"><rect fill="#F1F1F1" height="95.1875" rx="2.5" ry="2.5" style="stroke:#181818;stroke-width:0.5;" width="139" x="324.5" y="54.15"/><rect fill="#F1F1F1" height="10" style="stroke:#181818;stroke-width:0.5;" width="15" x="443.5" y="59.15"/><rect fill="#F1F1F1" height="2" style="stroke:#181818;stroke-width:0.5;" width="4" x="441.5" y="61.15"/><rect fill="#F1F1F1" height="2" style="stroke:#181818;stroke-width:0.5;" width="4" x="441.5" y="65.15"/><text fill="#000000" font-family="sans-serif" font-size="14" font-weight="bold" lengthAdjust="spacing" textLength="88" x="339.5" y="87.1451">snik_celery</text><text fill="#000000" font-family="sans-serif" font-size="14" lengthAdjust="spacing" textLength="4" x="339.5" y="103.442">&#160;</text><text fill="#000000" font-family="sans-serif" font-size="14" lengthAdjust="spacing" textLength="99" x="339.5" y="119.7389">restart: always</text><text fill="#000000" font-family="sans-serif" font-size="14" lengthAdjust="spacing" textLength="4" x="339.5" y="136.0357">&#160;</text></g><!--entity d3f2c5fc17a4ccbadfee6ffd3650adbf--><g id="elem_d3f2c5fc17a4ccbadfee6ffd3650adbf"><rect fill="#F1F1F1" height="39.2969" rx="2.5" ry="2.5" style="stroke:#181818;stroke-width:0.5;" width="103" x="351.5" y="474.49"/><polygon fill="#F1F1F1" points="437.5,479.49,437.5,493.49,449.5,493.49,449.5,485.49,443.5,479.49,437.5,479.49" style="stroke:#181818;stroke-width:0.5;"/><line style="stroke:#181818;stroke-width:0.5;" x1="443.5" x2="443.5" y1="479.49" y2="485.49"/><line style="stroke:#181818;stroke-width:0.5;" x1="449.5" x2="443.5" y1="485.49" y2="485.49"/><text fill="#000000" font-family="sans-serif" font-size="14" lengthAdjust="spacing" textLength="73" x="361.5" y="500.4851">/app/static</text></g><!--entity ad17feef312215fef15426ddee22c932--><g id="elem_ad17feef312215fef15426ddee22c932"><rect fill="#F1F1F1" height="111.4844" rx="2.5" ry="2.5" style="stroke:#181818;stroke-width:0.5;" width="171" x="1018.5" y="46"/><rect fill="#F1F1F1" height="10" style="stroke:#181818;stroke-width:0.5;" width="15" x="1169.5" y="51"/><rect fill="#F1F1F1" height="2" style="stroke:#181818;stroke-width:0.5;" width="4" x="1167.5" y="53"/><rect fill="#F1F1F1" height="2" style="stroke:#181818;stroke-width:0.5;" width="4" x="1167.5" y="57"/><text fill="#000000" font-family="sans-serif" font-size="14" font-weight="bold" lengthAdjust="spacing" textLength="82" x="1033.5" y="78.9951">snik_nginx</text><text fill="#000000" font-family="sans-serif" font-size="14" lengthAdjust="spacing" textLength="4" x="1033.5" y="95.292">&#160;</text><text fill="#000000" font-family="sans-serif" font-size="14" lengthAdjust="spacing" textLength="131" x="1033.5" y="111.5889">image: nginx:latest</text><text fill="#000000" font-family="sans-serif" font-size="14" lengthAdjust="spacing" textLength="99" x="1033.5" y="127.8857">restart: always</text><text fill="#000000" font-family="sans-serif" font-size="14" lengthAdjust="spacing" textLength="4" x="1033.5" y="144.1826">&#160;</text></g><!--entity 97b04832e42a04c7beb04c21e560b3fb--><g id="elem_97b04832e42a04c7beb04c21e560b3fb"><ellipse cx="997" cy="249.49" fill="#F1F1F1" rx="8" ry="8" style="stroke:#181818;stroke-width:0.5;"/><text fill="#000000" font-family="sans-serif" font-size="14" lengthAdjust="spacing" textLength="18" x="988" y="279.4851">80</text></g><!--entity 4f1c616099605b4393256998435f8b1b--><g id="elem_4f1c616099605b4393256998435f8b1b"><rect fill="#F1F1F1" height="39.2969" rx="2.5" ry="2.5" style="stroke:#181818;stroke-width:0.5;" width="233" x="1232.5" y="474.49"/><polygon fill="#F1F1F1" points="1448.5,479.49,1448.5,493.49,1460.5,493.49,1460.5,485.49,1454.5,479.49,1448.5,479.49" style="stroke:#181818;stroke-width:0.5;"/><line style="stroke:#181818;stroke-width:0.5;" x1="1454.5" x2="1454.5" y1="479.49" y2="485.49"/><line style="stroke:#181818;stroke-width:0.5;" x1="1460.5" x2="1454.5" y1="485.49" y2="485.49"/><text fill="#000000" font-family="sans-serif" font-size="14" lengthAdjust="spacing" textLength="203" x="1242.5" y="500.4851">/etc/nginx/conf.d/default.conf</text></g><!--entity 71184b3a82501433f4dc5c8c6c31b3a8--><g id="elem_71184b3a82501433f4dc5c8c6c31b3a8"><rect fill="#F1F1F1" height="39.2969" rx="2.5" ry="2.5" style="stroke:#181818;stroke-width:0.5;" width="103" x="951.5" y="474.49"/><polygon fill="#F1F1F1" points="1037.5,479.49,1037.5,493.49,1049.5,493.49,1049.5,485.49,1043.5,479.49,1037.5,479.49" style="stroke:#181818;stroke-width:0.5;"/><line style="stroke:#181818;stroke-width:0.5;" x1="1043.5" x2="1043.5" y1="479.49" y2="485.49"/><line style="stroke:#181818;stroke-width:0.5;" x1="1049.5" x2="1043.5" y1="485.49" y2="485.49"/><text fill="#000000" font-family="sans-serif" font-size="14" lengthAdjust="spacing" textLength="73" x="961.5" y="500.4851">/app/static</text></g><!--entity 735a67ee2a234fd0b2ad5fe0292876cb--><g id="elem_735a67ee2a234fd0b2ad5fe0292876cb"><rect fill="#F1F1F1" height="39.2969" rx="2.5" ry="2.5" style="stroke:#181818;stroke-width:0.5;" width="108" x="1090" y="474.49"/><polygon fill="#F1F1F1" points="1181,479.49,1181,493.49,1193,493.49,1193,485.49,1187,479.49,1181,479.49" style="stroke:#181818;stroke-width:0.5;"/><line style="stroke:#181818;stroke-width:0.5;" x1="1187" x2="1187" y1="479.49" y2="485.49"/><line style="stroke:#181818;stroke-width:0.5;" x1="1193" x2="1187" y1="485.49" y2="485.49"/><text fill="#000000" font-family="sans-serif" font-size="14" lengthAdjust="spacing" textLength="78" x="1100" y="500.4851">/app/media</text></g><!--entity 1b3bff591894c324e6d0194254b68417--><g id="elem_1b3bff591894c324e6d0194254b68417"><rect fill="#F1F1F1" height="39.2969" rx="2.5" ry="2.5" style="stroke:#181818;stroke-width:0.5;" width="129" x="85.5" y="592.78"/><polygon fill="#F1F1F1" points="197.5,597.78,197.5,611.78,209.5,611.78,209.5,603.78,203.5,597.78,197.5,597.78" style="stroke:#181818;stroke-width:0.5;"/><line style="stroke:#181818;stroke-width:0.5;" x1="203.5" x2="203.5" y1="597.78" y2="603.78"/><line style="stroke:#181818;stroke-width:0.5;" x1="209.5" x2="203.5" y1="603.78" y2="603.78"/><text fill="#000000" font-family="sans-serif" font-size="14" lengthAdjust="spacing" textLength="99" x="95.5" y="618.7751">postgres_data</text></g><!--entity 33dda7e0106bdbb56aa1069392a9f832--><g id="elem_33dda7e0106bdbb56aa1069392a9f832"><rect fill="#F1F1F1" height="39.2969" rx="2.5" ry="2.5" style="stroke:#181818;stroke-width:0.5;" width="104" x="586" y="592.78"/><polygon fill="#F1F1F1" points="673,597.78,673,611.78,685,611.78,685,603.78,679,597.78,673,597.78" style="stroke:#181818;stroke-width:0.5;"/><line style="stroke:#181818;stroke-width:0.5;" x1="679" x2="679" y1="597.78" y2="603.78"/><line style="stroke:#181818;stroke-width:0.5;" x1="685" x2="679" y1="603.78" y2="603.78"/><text fill="#000000" font-family="sans-serif" font-size="14" lengthAdjust="spacing" textLength="74" x="596" y="618.7751">static_data</text></g><!--entity 476a949ecadae2ac5ff5980be7abb651--><g id="elem_476a949ecadae2ac5ff5980be7abb651"><rect fill="#F1F1F1" height="39.2969" rx="2.5" ry="2.5" style="stroke:#181818;stroke-width:0.5;" width="109" x="865.5" y="592.78"/><polygon fill="#F1F1F1" points="957.5,597.78,957.5,611.78,969.5,611.78,969.5,603.78,963.5,597.78,957.5,597.78" style="stroke:#181818;stroke-width:0.5;"/><line style="stroke:#181818;stroke-width:0.5;" x1="963.5" x2="963.5" y1="597.78" y2="603.78"/><line style="stroke:#181818;stroke-width:0.5;" x1="969.5" x2="963.5" y1="603.78" y2="603.78"/><text fill="#000000" font-family="sans-serif" font-size="14" lengthAdjust="spacing" textLength="79" x="875.5" y="618.7751">media_data</text></g><!--entity 2eb48c1dc9444f0b6cadfea11d33e67f--><g id="elem_2eb48c1dc9444f0b6cadfea11d33e67f"><rect fill="#F1F1F1" height="39.2969" rx="2.5" ry="2.5" style="stroke:#181818;stroke-width:0.5;" width="152" x="1273" y="592.78"/><polygon fill="#F1F1F1" points="1408,597.78,1408,611.78,1420,611.78,1420,603.78,1414,597.78,1408,597.78" style="stroke:#181818;stroke-width:0.5;"/><line style="stroke:#181818;stroke-width:0.5;" x1="1414" x2="1414" y1="597.78" y2="603.78"/><line style="stroke:#181818;stroke-width:0.5;" x1="1420" x2="1414" y1="603.78" y2="603.78"/><text fill="#000000" font-family="sans-serif" font-size="14" lengthAdjust="spacing" textLength="122" x="1283" y="618.7751">./nginx/nginx.conf</text></g><!--entity 600c44c1349e9154dce569ba37e2d70b--><g id="elem_600c44c1349e9154dce569ba37e2d70b"><ellipse cx="527" cy="384.49" fill="#F1F1F1" rx="8" ry="8" style="stroke:#181818;stroke-width:0.5;"/><text fill="#000000" font-family="sans-serif" font-size="14" lengthAdjust="spacing" textLength="36" x="509" y="414.4851">8080</text></g><!--entity dba3f4d0bb5aa6fcfa18da2c1f7a9775--><g id="elem_dba3f4d0bb5aa6fcfa18da2c1f7a9775"><ellipse cx="892" cy="384.49" fill="#F1F1F1" rx="8" ry="8" style="stroke:#181818;stroke-width:0.5;"/><text fill="#000000" font-family="sans-serif" font-size="14" lengthAdjust="spacing" textLength="18" x="883" y="414.4851">80</text></g><!--link e66da74790b7871a57f1ed9ccc805310 to 1b3bff591894c324e6d0194254b68417--><g id="link_e66da74790b7871a57f1ed9ccc805310_1b3bff591894c324e6d0194254b68417"><path codeLine="60" d="M150,514.08 C150,535.7 150,570.87 150,592.5 " fill="none" id="e66da74790b7871a57f1ed9ccc805310-1b3bff591894c324e6d0194254b68417" style="stroke:#181818;stroke-width:1.0;"/><text fill="#000000" font-family="sans-serif" font-size="13" lengthAdjust="spacing" textLength="14" x="151" y="558.8469">rw</text></g><!--link 8effa97ce5e6dcdf84b649f2396404fa to e66da74790b7871a57f1ed9ccc805310--><g id="link_8effa97ce5e6dcdf84b649f2396404fa_e66da74790b7871a57f1ed9ccc805310"><path codeLine="61" d="M150,157.85 C150,246.76 150,411.61 150,468.32 " fill="none" id="8effa97ce5e6dcdf84b649f2396404fa-to-e66da74790b7871a57f1ed9ccc805310" style="stroke:#181818;stroke-width:1.0;stroke-dasharray:7.0,7.0;"/><polygon fill="#181818" points="150,474.32,154,465.32,150,469.32,146,465.32,150,474.32" style="stroke:#181818;stroke-width:1.0;"/><text fill="#000000" font-family="sans-serif" font-size="13" lengthAdjust="spacing" textLength="23" x="151" y="321.5569">use</text></g><!--link 58f00ed1c3de44988afe14aa7b8a320f to 0ec3911f265d6f2f1518d5bc64617499--><g id="link_58f00ed1c3de44988afe14aa7b8a320f_0ec3911f265d6f2f1518d5bc64617499"><path codeLine="62" d="M655.72,149.66 C641.48,182.61 623.71,223.71 616.39,240.64 " fill="none" id="58f00ed1c3de44988afe14aa7b8a320f-0ec3911f265d6f2f1518d5bc64617499" style="stroke:#181818;stroke-width:1.0;"/></g><!--link 0ec3911f265d6f2f1518d5bc64617499 to 600c44c1349e9154dce569ba37e2d70b--><g id="link_0ec3911f265d6f2f1518d5bc64617499_600c44c1349e9154dce569ba37e2d70b"><path codeLine="63" d="M607.88,258.41 C592.55,282.12 547.14,352.34 531.99,375.77 " fill="none" id="0ec3911f265d6f2f1518d5bc64617499-600c44c1349e9154dce569ba37e2d70b" style="stroke:#181818;stroke-width:1.0;"/></g><!--link be8b2bf6e28fad2562a085b3039bb9f1 to 33dda7e0106bdbb56aa1069392a9f832--><g id="link_be8b2bf6e28fad2562a085b3039bb9f1_33dda7e0106bdbb56aa1069392a9f832"><path codeLine="64" d="M638,514.08 C638,535.7 638,570.87 638,592.5 " fill="none" id="be8b2bf6e28fad2562a085b3039bb9f1-33dda7e0106bdbb56aa1069392a9f832" style="stroke:#181818;stroke-width:1.0;"/><text fill="#000000" font-family="sans-serif" font-size="13" lengthAdjust="spacing" textLength="14" x="639" y="558.8469">rw</text></g><!--link 58f00ed1c3de44988afe14aa7b8a320f to be8b2bf6e28fad2562a085b3039bb9f1--><g id="link_58f00ed1c3de44988afe14aa7b8a320f_be8b2bf6e28fad2562a085b3039bb9f1"><path codeLine="65" d="M671.42,149.83 C663.03,236.02 646.1213,409.6982 640.4213,468.2582 " fill="none" id="58f00ed1c3de44988afe14aa7b8a320f-to-be8b2bf6e28fad2562a085b3039bb9f1" style="stroke:#181818;stroke-width:1.0;stroke-dasharray:7.0,7.0;"/><polygon fill="#181818" points="639.84,474.23,644.6931,465.6598,640.3244,469.2535,636.7307,464.8848,639.84,474.23" style="stroke:#181818;stroke-width:1.0;"/><text fill="#000000" font-family="sans-serif" font-size="13" lengthAdjust="spacing" textLength="23" x="656" y="321.5569">use</text></g><!--link 5e0b9b67f6d26f68b6785193ccf94dd1 to 476a949ecadae2ac5ff5980be7abb651--><g id="link_5e0b9b67f6d26f68b6785193ccf94dd1_476a949ecadae2ac5ff5980be7abb651"><path codeLine="66" d="M801.62,514.18 C817.83,527.78 840.19,546.48 860,562.78 C871.91,572.58 885.23,583.4 896.28,592.33 " fill="none" id="5e0b9b67f6d26f68b6785193ccf94dd1-476a949ecadae2ac5ff5980be7abb651" style="stroke:#181818;stroke-width:1.0;"/><text fill="#000000" font-family="sans-serif" font-size="13" lengthAdjust="spacing" textLength="14" x="861" y="558.8469">rw</text></g><!--link 58f00ed1c3de44988afe14aa7b8a320f to 5e0b9b67f6d26f68b6785193ccf94dd1--><g id="link_58f00ed1c3de44988afe14aa7b8a320f_5e0b9b67f6d26f68b6785193ccf94dd1"><path codeLine="67" d="M688.42,149.83 C711.16,236.02 757.0294,409.8685 772.4794,468.4285 " fill="none" id="58f00ed1c3de44988afe14aa7b8a320f-to-5e0b9b67f6d26f68b6785193ccf94dd1" style="stroke:#181818;stroke-width:1.0;stroke-dasharray:7.0,7.0;"/><polygon fill="#181818" points="774.01,474.23,775.5817,464.5074,772.7345,469.3954,767.8464,466.5482,774.01,474.23" style="stroke:#181818;stroke-width:1.0;"/><text fill="#000000" font-family="sans-serif" font-size="13" lengthAdjust="spacing" textLength="23" x="735" y="321.5569">use</text></g><!--link d3f2c5fc17a4ccbadfee6ffd3650adbf to 33dda7e0106bdbb56aa1069392a9f832--><g id="link_d3f2c5fc17a4ccbadfee6ffd3650adbf_33dda7e0106bdbb56aa1069392a9f832"><path codeLine="68" d="M441.54,514.21 C485.16,535.8 555.81,570.76 599.44,592.35 " fill="none" id="d3f2c5fc17a4ccbadfee6ffd3650adbf-33dda7e0106bdbb56aa1069392a9f832" style="stroke:#181818;stroke-width:1.0;"/><text fill="#000000" font-family="sans-serif" font-size="13" lengthAdjust="spacing" textLength="14" x="535" y="558.8469">rw</text></g><!--link 03d1d8e7460ee68d1cd56e0d2579533b to d3f2c5fc17a4ccbadfee6ffd3650adbf--><g id="link_03d1d8e7460ee68d1cd56e0d2579533b_d3f2c5fc17a4ccbadfee6ffd3650adbf"><path codeLine="69" d="M395.09,149.83 C397.07,236.02 401.0717,409.6716 402.4217,468.2316 " fill="none" id="03d1d8e7460ee68d1cd56e0d2579533b-to-d3f2c5fc17a4ccbadfee6ffd3650adbf" style="stroke:#181818;stroke-width:1.0;stroke-dasharray:7.0,7.0;"/><polygon fill="#181818" points="402.56,474.23,406.3515,465.1402,402.4448,469.2313,398.3536,465.3246,402.56,474.23" style="stroke:#181818;stroke-width:1.0;"/><text fill="#000000" font-family="sans-serif" font-size="13" lengthAdjust="spacing" textLength="23" x="400" y="321.5569">use</text></g><!--link ad17feef312215fef15426ddee22c932 to 97b04832e42a04c7beb04c21e560b3fb--><g id="link_ad17feef312215fef15426ddee22c932_97b04832e42a04c7beb04c21e560b3fb"><path codeLine="70" d="M1063.55,157.84 C1040.59,189.12 1014.21,225.05 1002.78,240.61 " fill="none" id="ad17feef312215fef15426ddee22c932-97b04832e42a04c7beb04c21e560b3fb" style="stroke:#181818;stroke-width:1.0;"/></g><!--link 97b04832e42a04c7beb04c21e560b3fb to dba3f4d0bb5aa6fcfa18da2c1f7a9775--><g id="link_97b04832e42a04c7beb04c21e560b3fb_dba3f4d0bb5aa6fcfa18da2c1f7a9775"><path codeLine="71" d="M990.75,258.41 C972.03,282.12 916.59,352.34 898.09,375.77 " fill="none" id="97b04832e42a04c7beb04c21e560b3fb-dba3f4d0bb5aa6fcfa18da2c1f7a9775" style="stroke:#181818;stroke-width:1.0;"/></g><!--link 4f1c616099605b4393256998435f8b1b to 2eb48c1dc9444f0b6cadfea11d33e67f--><g id="link_4f1c616099605b4393256998435f8b1b_2eb48c1dc9444f0b6cadfea11d33e67f"><path codeLine="72" d="M1349,514.08 C1349,535.7 1349,570.87 1349,592.5 " fill="none" id="4f1c616099605b4393256998435f8b1b-2eb48c1dc9444f0b6cadfea11d33e67f" style="stroke:#181818;stroke-width:1.0;"/><text fill="#000000" font-family="sans-serif" font-size="13" lengthAdjust="spacing" textLength="14" x="1350" y="558.8469">rw</text></g><!--link ad17feef312215fef15426ddee22c932 to 4f1c616099605b4393256998435f8b1b--><g id="link_ad17feef312215fef15426ddee22c932_4f1c616099605b4393256998435f8b1b"><path codeLine="73" d="M1138.58,157.85 C1194.38,246.76 1298.4106,412.5279 1334.0006,469.2379 " fill="none" id="ad17feef312215fef15426ddee22c932-to-4f1c616099605b4393256998435f8b1b" style="stroke:#181818;stroke-width:1.0;stroke-dasharray:7.0,7.0;"/><polygon fill="#181818" points="1337.19,474.32,1335.7939,464.5706,1334.5322,470.0849,1329.0178,468.8231,1337.19,474.32" style="stroke:#181818;stroke-width:1.0;"/><text fill="#000000" font-family="sans-serif" font-size="13" lengthAdjust="spacing" textLength="23" x="1244" y="321.5569">use</text></g><!--link 71184b3a82501433f4dc5c8c6c31b3a8 to 33dda7e0106bdbb56aa1069392a9f832--><g id="link_71184b3a82501433f4dc5c8c6c31b3a8_33dda7e0106bdbb56aa1069392a9f832"><path codeLine="74" d="M974.37,514.17 C950.18,529.44 914.1,550.31 880,562.78 C816.81,585.89 740.11,598.95 690.23,605.6 " fill="none" id="71184b3a82501433f4dc5c8c6c31b3a8-33dda7e0106bdbb56aa1069392a9f832" style="stroke:#181818;stroke-width:1.0;"/><text fill="#000000" font-family="sans-serif" font-size="13" lengthAdjust="spacing" textLength="14" x="919" y="558.8469">rw</text></g><!--link ad17feef312215fef15426ddee22c932 to 71184b3a82501433f4dc5c8c6c31b3a8--><g id="link_ad17feef312215fef15426ddee22c932_71184b3a82501433f4dc5c8c6c31b3a8"><path codeLine="75" d="M1089.74,157.85 C1066.74,246.76 1024.0426,411.8012 1009.3726,468.5112 " fill="none" id="ad17feef312215fef15426ddee22c932-to-71184b3a82501433f4dc5c8c6c31b3a8" style="stroke:#181818;stroke-width:1.0;stroke-dasharray:7.0,7.0;"/><polygon fill="#181818" points="1007.87,474.32,1013.9965,466.6086,1009.1222,469.4793,1006.2514,464.605,1007.87,474.32" style="stroke:#181818;stroke-width:1.0;"/><text fill="#000000" font-family="sans-serif" font-size="13" lengthAdjust="spacing" textLength="23" x="1051" y="321.5569">use</text></g><!--link 735a67ee2a234fd0b2ad5fe0292876cb to 476a949ecadae2ac5ff5980be7abb651--><g id="link_735a67ee2a234fd0b2ad5fe0292876cb_476a949ecadae2ac5ff5980be7abb651"><path codeLine="76" d="M1113.14,514.18 C1100.52,521.77 1085.69,530.43 1072,537.78 C1035.32,557.49 992.56,577.99 961.76,592.35 " fill="none" id="735a67ee2a234fd0b2ad5fe0292876cb-476a949ecadae2ac5ff5980be7abb651" style="stroke:#181818;stroke-width:1.0;"/><text fill="#000000" font-family="sans-serif" font-size="13" lengthAdjust="spacing" textLength="14" x="1056" y="558.8469">rw</text></g><!--link ad17feef312215fef15426ddee22c932 to 735a67ee2a234fd0b2ad5fe0292876cb--><g id="link_ad17feef312215fef15426ddee22c932_735a67ee2a234fd0b2ad5fe0292876cb"><path codeLine="77" d="M1109.65,157.85 C1118.76,246.76 1135.6485,411.6412 1141.4585,468.3512 " fill="none" id="ad17feef312215fef15426ddee22c932-to-735a67ee2a234fd0b2ad5fe0292876cb" style="stroke:#181818;stroke-width:1.0;stroke-dasharray:7.0,7.0;"/><polygon fill="#181818" points="1142.07,474.32,1145.1319,464.9592,1141.5604,469.346,1137.1736,465.7745,1142.07,474.32" style="stroke:#181818;stroke-width:1.0;"/><text fill="#000000" font-family="sans-serif" font-size="13" lengthAdjust="spacing" textLength="23" x="1127" y="321.5569">use</text></g><!--SRC=[bLNBRkj63DthAmIlsW2nv_tmeejsNnJT5aN06PA1SHtPjPNcNXJzzrAANxbjEZSRGIE8vE6PmqFORdSlJvlFc-6n6tP8_UANtN5yFD3nZ-q3baKFnnuq58UUBBDBEHCvxnchBavP18lzNrrVTq_xtK33s2TYXXmhUGfOaPChmMKsDWUd74F_MtTtTnmsdnuGHYXmfBkxhjiymIEj-_sf-5hRfRg7xNupK2Vd4GxZkeVj2tmvTjtldHmt37Ni5wi_uR3QRifgVy6zcXBFo2a4XEXYLYMcgC57reIvrfgKjrfrVv-Q_X7g9nfm3YhECc9EHJD6vO5SjQ1LPUC1CC7RTdrYfGXrjKZEvPI0IJk0M19Oe_ZQRdcjCNNx7nrzzts_I2gf6OAYQhFMR8B7m8QrrmbzgS457LtEj_t3Vh-IREEclgAdL4pXG2OneF71W4g-M6LpAPdrrw5FX9jNiZofaak87D043abUazVPrihP8UeBMRzAo74EIG5qoIgYTuMZqb94NgmEf9Eb4DzIXHYzDGpIYX5c2kSglCQWq2O5yOQgmrJXHXRpUHsNvb-IU1wsT3pU7yVTVayu4Nb6-HDjwV1bXeak2VasE10Lwr0JgA8j9y4DbD6_XIcYrfWekg28GfAhHHz82PSnUslB5MQTIxnpeUzV4LesrNFL4Loj1P2b3ZFQu1LWuKiBFpzkXi-lGYPddJAsSieOaOlH72m6nuhbWtlR0Q2EabCkmXZjcKG_pWH48cDgjkRQmJ1Lk25wFg-tC4e_xwjqXfHZKIvPGquKvcei9ETgDFcWYkLoIm2DTJMdNjNTm4jS8J4yRyVbT9opETOrwA1o3ihB10fA7t9EpdgMIIp_GsVKMZp6GZ9UQMSjEwo-fXggrTFdznKVhOSGXHKmrZ6gOaGWJCfaasAeHIxY6dlsbuUBkqZsmkopJbaimZZnEwMpCp8C8JaTRu9VuLv3hKKn9fA92GLByG5a4aAssK1c8VKcT8PxZNGnG7QPAY08SD6H84YgK8HIWh-Tx-M9y_bvfTfGSQbghDavqKy9TL8WQ8rscbb-QqL1gUfSrLPgPj4HYh67NC16CcAFvLOIA9-5VIKD0GIk369ROAhcA1iX-gxbn_qztZTfxTVzul2ow9gBPhd4vVA7vXAOyZqVQT4rhNn2rxJcrWzpbYQhBHkVixHKT6QgsTY9gMRH2rEDLJ6ZQodre-YQHS_eMlxw8UwQs-24hbdqZAvfpXEwfhcsVfYpDEUnvRfpbfPVd9bgDdPYgbdqp5JBs3zqZz-AhbdqWgwnF3uq0z-ChbNqXEuV]--></g></svg>